<?xml version="1.0" encoding="UTF-8"?>
<svg xmlns="http://www.w3.org/2000/svg" fill="none" viewBox="0 0 207 60">
  <g clip-path="url(#a)">
    <path d="M97.2 13.3c.3-.4.7-.6 1.2-.6.3 0 .6.1.8.4a1.2 1.2 0 0 1 0 1.7 8.5 8.5 0 0 1-4.8 2.9 39 39 0 0 1-8 .8l-5.3 13.2c-1.8 4.8-3.3 9.2-4.5 13.3-.2.7-.5 1.3-1 1.7-.5.4-1 .6-1.6.6a2 2 0 0 1-1.5-.6c-.4-.4-.6-1-.6-1.7l.1-.9a301.7 301.7 0 0 1 9.4-25.7h-2.2a98 98 0 0 0-3.2 0c-2.2 0-3.8.2-5 .7-1.2.5-2 1.4-2.5 2.9-.2.5-.6.8-1 .8s-.8-.1-1-.4c-.4-.2-.5-.5-.5-.9v-.4c.8-2.2 2-3.7 3.5-4.4 1.7-.7 3.9-1 6.6-1a121.8 121.8 0 0 1 6.5 0h.3c.3-.3.9-.5 1.6-.5a3 3 0 0 1 2 .6c2.9 0 5.2-.1 7-.4a6 6 0 0 0 3.7-2Z" fill="#222"></path>
    <path d="M95 47.6c-1.3 0-2.3-.3-3.2-1-.8-.7-1.2-1.7-1.2-3 0-1.6.5-3.7 1.5-6.2 1-2.6 2.1-5 3.4-7.4a36.6 36.6 0 0 1-4.6 1.5 64.2 64.2 0 0 1-3.4 7.7l-.4.9c-.4.8-.9 1.2-1.5 1.2l-.5-.1c-.4-.2-.6-.6-.6-1s.1-.7.3-1.1c1-1.9 2-4.2 3-7l.5-1.2c-1.4-1-2-2.2-2-3.5a4.2 4.2 0 0 1 2-3.7 3 3 0 0 1 1.5-.6 2 2 0 0 1 1.6.8c.5.5.7 1.3.7 2.3 0 .6-.1 1.4-.4 2.4l1.5-.5a46.1 46.1 0 0 1 5.3-1.3c.7 0 1.3.2 1.7.7.4.4.6 1 .6 1.5a47 47 0 0 1-2 5c-1 2.1-1.9 4-2.5 5.6-.6 1.5-.9 2.9-.9 4 0 .5 0 .8.2 1 .1.2.3.2.5.2.9 0 1.7-.4 2.5-1.3.9-1 1.5-2 2.1-3a174.3 174.3 0 0 0 3-6c.3-.4.7-.5 1.2-.5.6 0 .9.2.9.8l-.4 1.6c-1.3 3.4-2.7 6-4.3 8.1-1.6 2-3.7 3.1-6.1 3.1Z" fill="#222"></path>
    <path d="M111.8 25a2 2 0 0 1-1.6-.7c-.4-.4-.6-1-.6-1.6 0-.7.2-1.4.5-2.1.4-.7 1-1.3 1.5-1.7a3 3 0 0 1 1.8-.6 2 2 0 0 1 1.5.7c.4.5.6 1 .6 1.8a4 4 0 0 1-.5 1.9c-.4.6-1 1.2-1.5 1.6a3 3 0 0 1-1.7.6Zm-6.6 22.6c-1.3 0-2.3-.3-3.2-1a3.6 3.6 0 0 1-1.2-3c0-1.8.6-4.3 1.8-7.3 1.1-3 2.4-5.5 3.8-7.6a3 3 0 0 1 1.3-1c.5-.3 1-.5 1.6-.5.6 0 1 .2 1.5.4.4.3.6.6.6 1s-.1.7-.3 1c-1.3 2-2.5 4.5-3.7 7.4a19 19 0 0 0-1.8 6.7l.1.9c.2.2.3.2.5.2.8 0 1.5-.3 2.2-1 .7-.7 1.3-1.6 1.9-2.6l2.1-4 .8-1.7.5-1 .5-.7.8-.2c.3 0 .5 0 .8.3.2.2.3.5.3.9l-.1.6-.5 1-.6 1.3c-1 2.2-1.9 4-2.7 5.3-.8 1.4-1.8 2.5-3 3.3a6.9 6.9 0 0 1-4 1.3Z" fill="#222"></path>
    <path d="M116.7 47.6c-1.5 0-2.6-.5-3.6-1.5a6 6 0 0 1-1.3-4.2 17.6 17.6 0 0 1 5.4-12.6 8 8 0 0 1 5.6-2.4c.7 0 1.5.2 2.1.5.7.2 1.2.6 1.6 1.2.7 1 1 2.2 1 4 0 .7 0 1.5-.2 2.3.8.1 1.5 0 2.3-.5.7-.4 1.2-1 1.6-2 .4-.9 1-1.2 1.7-1.2.6.2.9.5.9 1 0 .4-.1.9-.4 1.3a6.2 6.2 0 0 1-7 3.9c-1.6 4-3.4 6.9-5.5 8.5a6.7 6.7 0 0 1-4.2 1.7Zm1-2.8c.8 0 1.9-.8 3.1-2.4a24 24 0 0 0 3.2-6 6.4 6.4 0 0 1-2-2.3c-.5-1-.8-2.1-.8-3.2-1.1 1.3-2.2 3-3.2 5-1 2.2-1.6 4.1-1.6 5.9 0 .8.2 1.6.4 2.1.2.6.5.9.8.9Z" fill="#222"></path>
    <path d="M135.8 47.6a7 7 0 0 1-5.3-2 7 7 0 0 1-1.9-5c0-1.6.4-3.2 1.2-4.7.3-.6.7-1 1.2-1 .3 0 .6.2.8.4.3.3.4.6.4 1 0 .2 0 .5-.2.8a8.8 8.8 0 0 0-.8 3.5 5 5 0 0 0 .9 3c.6.8 1.5 1.2 2.7 1.2a3 3 0 0 0 2.2-.8c.5-.6.8-1.3.8-2.3 0-.6 0-1.2-.4-1.7-.2-.6-.7-1.5-1.5-2.8l-.8-1.3-1.3-2.5a6.8 6.8 0 0 1 .3-6c.6-1 1.3-1.7 2.2-2.1.9-.5 1.8-.8 2.8-.8 1.3 0 2.5.5 3.4 1.4 1 .9 1.5 2 1.5 3.6 0 .6 0 1.2-.2 1.8l-.6 1.7c0 .3-.3.5-.5.7l-.7.2c-.3 0-.6-.1-.8-.3-.3-.3-.4-.6-.4-1v-.3a37.4 37.4 0 0 0 .6-2.3c0-1-.1-1.6-.3-2-.2-.4-.5-.6-.9-.6-.6 0-1.1.3-1.5 1-.4.7-.6 1.5-.6 2.6 0 .4.1 1.1.5 2 .4.8.8 1.7 1.4 2.5l2 3.4c.4 1 .6 2 .6 3 0 1.8-.7 3.2-2 4.2-1.4 1-3 1.5-4.8 1.5Z" fill="#222"></path>
    <path d="M160.2 28.1c.5.6.7 1.5.7 2.6a29 29 0 0 1-6.6 15.2 5.4 5.4 0 0 1-3.5 1.4c-.6 0-1.2-.1-1.7-.4a6 6 0 0 1-2.2-2.3c-2 4.3-3 7.7-3 10.2 0 1-.2 1.8-.7 2.3-.4.6-1 .9-1.6.9-.7 0-1.2-.3-1.7-1-.5-.6-.8-1.5-.8-2.6 0-1.7.5-3.7 1.3-6.1.9-2.4 2-5.2 3.6-8.4 1.8-3.8 2.7-6.9 2.7-9.3a6 6 0 0 0-.2-1.6 6 6 0 0 1-.1-.8c0-.6.2-1.1.6-1.4.4-.4.9-.6 1.4-.6.6 0 1.2.2 1.7.5.6.3.9.7 1 1.2.3 1 .4 1.8.4 2.8 0 .8 0 1.7-.3 2.8a37.6 37.6 0 0 1 5.6-5.4c.6-.5 1.3-.8 1.9-.8.6 0 1 .3 1.5.8Zm-2.8 7a6 6 0 0 0 .3-1.7c0-.5-.1-.8-.3-1.1a.7.7 0 0 0-.6-.4c-.5 0-1.1.4-1.8 1.1l-2.7 3-3 4c-.4.5-.6 1-.6 1.8l.3 1.5c.3.5.6.9 1 1.1.3.2.6.4 1 .4.6 0 1.3-.4 2-1.1a28.9 28.9 0 0 0 4.5-8.7ZM170.9 25a2 2 0 0 1-1.6-.7c-.4-.4-.6-1-.6-1.6 0-.7.2-1.4.6-2.1.3-.7.8-1.3 1.4-1.7a3 3 0 0 1 1.8-.6 2 2 0 0 1 1.5.7c.4.5.6 1 .6 1.8a4 4 0 0 1-.5 1.9c-.4.6-.9 1.2-1.5 1.6a3 3 0 0 1-1.7.6Zm-6.6 22.6c-1.3 0-2.3-.3-3.2-1a3.6 3.6 0 0 1-1.2-3c0-1.8.6-4.3 1.8-7.3 1.1-3 2.4-5.5 3.8-7.6a3 3 0 0 1 1.3-1c.6-.3 1-.5 1.6-.5.6 0 1 .2 1.5.4.4.3.6.6.6 1s-.1.7-.3 1c-1.3 2-2.5 4.5-3.7 7.4a19 19 0 0 0-1.8 6.7l.1.9c.2.2.3.2.5.2.8 0 1.5-.3 2.2-1 .7-.7 1.4-1.6 1.9-2.6a74 74 0 0 0 2.1-4l.8-1.7.5-1 .5-.7.8-.2c.3 0 .6 0 .8.3.2.2.3.5.3.9l-.1.6-.5 1-.6 1.3c-1 2.2-1.9 4-2.7 5.3-.8 1.4-1.8 2.5-3 3.3a6.9 6.9 0 0 1-4 1.3Z" fill="#222"></path>
    <path d="M180.8 47.6c-1.3 0-2.4-.3-3.2-1-.8-.7-1.2-1.7-1.2-3 0-1.6.5-3.7 1.5-6.2 1-2.6 2-5 3.4-7.4a36.5 36.5 0 0 1-4.6 1.5 65 65 0 0 1-3.4 7.7l-.4.9c-.4.8-.9 1.2-1.5 1.2l-.5-.1c-.4-.2-.6-.6-.6-1s0-.7.3-1.1c1-1.9 2-4.2 3-7l.5-1.2c-1.4-1-2-2.2-2-3.5 0-.8 0-1.5.4-2.2.4-.7.9-1.2 1.5-1.5a3 3 0 0 1 1.6-.6 2 2 0 0 1 1.6.8c.5.5.7 1.3.7 2.3 0 .6-.1 1.4-.4 2.4l1.5-.5a46 46 0 0 1 5.3-1.3c.7 0 1.3.2 1.7.7.4.4.6 1 .6 1.5a47.6 47.6 0 0 1-2 5 77 77 0 0 0-2.5 5.6c-.6 1.5-.9 2.9-.9 4 0 .5 0 .8.2 1 0 .2.3.2.5.2.9 0 1.7-.4 2.5-1.3.8-1 1.5-2 2-3a180.2 180.2 0 0 0 3.1-6c.3-.4.7-.5 1.2-.5.6 0 .9.2.9.8l-.4 1.6c-1.3 3.4-2.7 6-4.4 8.1-1.5 2-3.6 3.1-6 3.1Z" fill="#222"></path>
    <path d="M205.7 35.2c.6 0 1 .3 1 1a34.6 34.6 0 0 1-3.4 7.4c-1 1.2-2 2.3-3.4 3a10.7 10.7 0 0 1-8.7.2c-1.1-.5-2-1.2-2.7-2.2a6 6 0 0 1-1-3.4 17.3 17.3 0 0 1 5.7-12 8 8 0 0 1 5.3-2.3c1.6 0 2.8.4 3.7 1 .8.8 1.2 1.7 1.2 2.9 0 2.2-1 4.3-3.1 6.4a24.4 24.4 0 0 1-7.7 5.1 3.4 3.4 0 0 0 3.3 2.5c3 0 5.7-2.6 8-7.8l.7-1.4c.3-.3.7-.4 1.1-.4Zm-5.4-4c0-.3-.1-.5-.3-.7-.3-.2-.6-.3-1-.3s-1 .1-1.5.4c-.5.3-1 .8-1.5 1.3a19.8 19.8 0 0 0-3.4 7.4c2.1-1 4-2.3 5.4-3.7 1.5-1.5 2.3-3 2.3-4.4Z" fill="#222"></path>
    <path d="M60 30c0 23.6-6.4 30-30 30S0 53.6 0 30 6.4 0 30 0s30 6.4 30 30Z" fill="#6A39FF"></path>
    <path d="M25.7 47.8V21.7c0-.6-.1-.8-.7-.8H14c0-1.3.3-2.5.9-3.6 1.4-2.6 3.7-4 6.7-4h18.2l-1.4.6c-2.8 1.6-5 4-5 7.2V39c0 3.7-2.5 7.3-5.8 8.5l-2 .4Z" fill="#fff"></path>
    <path d="M35.6 20.7c0-4.1 3.3-7.5 7.4-7.5h1.8c.7 0 1.2.6 1.2 1.2v1.2c0 2.8-2.3 5-5.1 5h-5.3Z" fill="#C93667"></path>
  </g>
  <defs>
    <clipPath id="a">
      <path fill="#fff" d="M0 0H206.8V60H0z"></path>
    </clipPath>
  </defs>
</svg>
